# xmcd
#
# Track frame offsets:
#	150
#	22992
#	41414
#	54265
#	88881
#	107827
#	141353
#	175501
#	187205
#	202973
#	237101
#	260805
#	283953
#
# Disc length: 4015 seconds
#
# Revision: 0
# Processed by: cddbd v1.5.2PL0 Copyright (c) Steve Scherf et al.
# Submitted via: EasyCDDAExtractor 4.6.9.1
#
DISCID=bb0fad0d
DTITLE=Diunna Greenleaf and Blue Mercy - Cotton Field to Coffee House
DYEAR=2006
DGENRE=Blues
TTITLE0=Back Door Man
TTITLE1=Possesion Over Judgement Day
TTITLE2=The Very Thought Of You
TTITLE3=Little Red Rooster
TTITLE4=Love Treasure
TTITLE5=Tribute to John Lee Hooker
TTITLE6=Change is Gonna Come
TTITLE7=Lonely Man Blues
TTITLE8=Beams of Heaven
TTITLE9=Resolutions
TTITLE10=Members Only
TTITLE11=Shake A Hand
TTITLE12=Just Before Dawn
EXTD=
EXTT0=
EXTT1=
EXTT2=
EXTT3=
EXTT4=
EXTT5=
EXTT6=
EXTT7=
EXTT8=
EXTT9=
EXTT10=
EXTT11=
EXTT12=
PLAYORDER=
